solid sorteerbak groot
   facet normal 1.000000e+00 0.000000e+00 0.000000e+00
      outer loop
         vertex 4.999999e-03 7.900000e-02 1.510000e-01
         vertex 4.999999e-03 0.000000e+00 1.510000e-01
         vertex 4.999999e-03 7.900000e-02 6.000005e-03
      endloop
   endfacet
   facet normal 1.000000e+00 0.000000e+00 0.000000e+00
      outer loop
         vertex 4.999999e-03 7.900000e-02 6.000005e-03
         vertex 4.999999e-03 0.000000e+00 1.510000e-01
         vertex 4.999999e-03 0.000000e+00 6.000005e-03
      endloop
   endfacet
   facet normal 0.000000e+00 0.000000e+00 -1.000000e+00
      outer loop
         vertex 9.700000e-02 0.000000e+00 1.510000e-01
         vertex 9.600000e-02 0.000000e+00 1.510000e-01
         vertex 9.600000e-02 4.200000e-02 1.510000e-01
      endloop
   endfacet
   facet normal 0.000000e+00 0.000000e+00 -1.000000e+00
      outer loop
         vertex 5.999997e-03 0.000000e+00 1.510000e-01
         vertex 4.999999e-03 0.000000e+00 1.510000e-01
         vertex 5.999997e-03 4.200000e-02 1.510000e-01
      endloop
   endfacet
   facet normal -0.000000e+00 0.000000e+00 -1.000000e+00
      outer loop
         vertex 5.999997e-03 4.200000e-02 1.510000e-01
         vertex 4.999999e-03 0.000000e+00 1.510000e-01
         vertex 4.999999e-03 7.900000e-02 1.510000e-01
      endloop
   endfacet
   facet normal 0.000000e+00 0.000000e+00 -1.000000e+00
      outer loop
         vertex 5.999997e-03 4.200000e-02 1.510000e-01
         vertex 4.999999e-03 7.900000e-02 1.510000e-01
         vertex 9.600000e-02 4.200000e-02 1.510000e-01
      endloop
   endfacet
   facet normal 0.000000e+00 0.000000e+00 -1.000000e+00
      outer loop
         vertex 9.600000e-02 4.200000e-02 1.510000e-01
         vertex 4.999999e-03 7.900000e-02 1.510000e-01
         vertex 9.700000e-02 7.900000e-02 1.510000e-01
      endloop
   endfacet
   facet normal 0.000000e+00 0.000000e+00 -1.000000e+00
      outer loop
         vertex 9.600000e-02 4.200000e-02 1.510000e-01
         vertex 9.700000e-02 7.900000e-02 1.510000e-01
         vertex 9.700000e-02 0.000000e+00 1.510000e-01
      endloop
   endfacet
   facet normal -1.000000e+00 0.000000e+00 0.000000e+00
      outer loop
         vertex 9.700000e-02 7.900000e-02 6.000005e-03
         vertex 9.700000e-02 0.000000e+00 6.000005e-03
         vertex 9.700000e-02 7.900000e-02 1.510000e-01
      endloop
   endfacet
   facet normal -1.000000e+00 -0.000000e+00 0.000000e+00
      outer loop
         vertex 9.700000e-02 7.900000e-02 1.510000e-01
         vertex 9.700000e-02 0.000000e+00 6.000005e-03
         vertex 9.700000e-02 0.000000e+00 1.510000e-01
      endloop
   endfacet
   facet normal 0.000000e+00 -0.000000e+00 1.000000e+00
      outer loop
         vertex 9.700000e-02 0.000000e+00 6.000005e-03
         vertex 9.700000e-02 7.900000e-02 6.000005e-03
         vertex 4.999999e-03 0.000000e+00 6.000005e-03
      endloop
   endfacet
   facet normal 0.000000e+00 0.000000e+00 1.000000e+00
      outer loop
         vertex 4.999999e-03 0.000000e+00 6.000005e-03
         vertex 9.700000e-02 7.900000e-02 6.000005e-03
         vertex 4.999999e-03 7.900000e-02 6.000005e-03
      endloop
   endfacet
   facet normal 0.000000e+00 1.000000e+00 0.000000e+00
      outer loop
         vertex 0.000000e+00 8.200000e-02 0.000000e+00
         vertex 0.000000e+00 8.200000e-02 1.650000e-01
         vertex 1.020000e-01 8.200000e-02 0.000000e+00
      endloop
   endfacet
   facet normal 0.000000e+00 1.000000e+00 -0.000000e+00
      outer loop
         vertex 1.020000e-01 8.200000e-02 0.000000e+00
         vertex 0.000000e+00 8.200000e-02 1.650000e-01
         vertex 1.020000e-01 8.200000e-02 1.650000e-01
      endloop
   endfacet
   facet normal 0.000000e+00 -1.000000e+00 0.000000e+00
      outer loop
         vertex 5.999997e-03 0.000000e+00 1.510000e-01
         vertex 5.999997e-03 0.000000e+00 1.650000e-01
         vertex 4.999999e-03 0.000000e+00 1.510000e-01
      endloop
   endfacet
   facet normal 0.000000e+00 -1.000000e+00 0.000000e+00
      outer loop
         vertex 4.999999e-03 0.000000e+00 1.510000e-01
         vertex 5.999997e-03 0.000000e+00 1.650000e-01
         vertex 0.000000e+00 0.000000e+00 1.650000e-01
      endloop
   endfacet
   facet normal -0.000000e+00 -1.000000e+00 -0.000000e+00
      outer loop
         vertex 4.999999e-03 0.000000e+00 1.510000e-01
         vertex 0.000000e+00 0.000000e+00 1.650000e-01
         vertex 4.999999e-03 0.000000e+00 6.000005e-03
      endloop
   endfacet
   facet normal -0.000000e+00 -1.000000e+00 0.000000e+00
      outer loop
         vertex 4.999999e-03 0.000000e+00 6.000005e-03
         vertex 0.000000e+00 0.000000e+00 1.650000e-01
         vertex 0.000000e+00 0.000000e+00 0.000000e+00
      endloop
   endfacet
   facet normal 0.000000e+00 -1.000000e+00 -0.000000e+00
      outer loop
         vertex 4.999999e-03 0.000000e+00 6.000005e-03
         vertex 0.000000e+00 0.000000e+00 0.000000e+00
         vertex 9.700000e-02 0.000000e+00 6.000005e-03
      endloop
   endfacet
   facet normal 0.000000e+00 -1.000000e+00 -0.000000e+00
      outer loop
         vertex 9.700000e-02 0.000000e+00 6.000005e-03
         vertex 0.000000e+00 0.000000e+00 0.000000e+00
         vertex 1.020000e-01 0.000000e+00 0.000000e+00
      endloop
   endfacet
   facet normal 0.000000e+00 -1.000000e+00 0.000000e+00
      outer loop
         vertex 9.700000e-02 0.000000e+00 6.000005e-03
         vertex 1.020000e-01 0.000000e+00 0.000000e+00
         vertex 9.700000e-02 0.000000e+00 1.510000e-01
      endloop
   endfacet
   facet normal 0.000000e+00 -1.000000e+00 0.000000e+00
      outer loop
         vertex 9.700000e-02 0.000000e+00 1.510000e-01
         vertex 1.020000e-01 0.000000e+00 0.000000e+00
         vertex 1.020000e-01 0.000000e+00 1.650000e-01
      endloop
   endfacet
   facet normal 0.000000e+00 -1.000000e+00 0.000000e+00
      outer loop
         vertex 9.700000e-02 0.000000e+00 1.510000e-01
         vertex 1.020000e-01 0.000000e+00 1.650000e-01
         vertex 9.600000e-02 0.000000e+00 1.510000e-01
      endloop
   endfacet
   facet normal 0.000000e+00 -1.000000e+00 0.000000e+00
      outer loop
         vertex 9.600000e-02 0.000000e+00 1.510000e-01
         vertex 1.020000e-01 0.000000e+00 1.650000e-01
         vertex 9.600000e-02 0.000000e+00 1.650000e-01
      endloop
   endfacet
   facet normal 1.000000e+00 0.000000e+00 -0.000000e+00
      outer loop
         vertex 1.020000e-01 8.200000e-02 0.000000e+00
         vertex 1.020000e-01 8.200000e-02 1.650000e-01
         vertex 1.020000e-01 0.000000e+00 0.000000e+00
      endloop
   endfacet
   facet normal 1.000000e+00 0.000000e+00 0.000000e+00
      outer loop
         vertex 1.020000e-01 0.000000e+00 0.000000e+00
         vertex 1.020000e-01 8.200000e-02 1.650000e-01
         vertex 1.020000e-01 0.000000e+00 1.650000e-01
      endloop
   endfacet
   facet normal 0.000000e+00 0.000000e+00 -1.000000e+00
      outer loop
         vertex 0.000000e+00 8.200000e-02 0.000000e+00
         vertex 1.020000e-01 8.200000e-02 0.000000e+00
         vertex 0.000000e+00 0.000000e+00 0.000000e+00
      endloop
   endfacet
   facet normal 0.000000e+00 0.000000e+00 -1.000000e+00
      outer loop
         vertex 0.000000e+00 0.000000e+00 0.000000e+00
         vertex 1.020000e-01 8.200000e-02 0.000000e+00
         vertex 1.020000e-01 0.000000e+00 0.000000e+00
      endloop
   endfacet
   facet normal -1.000000e+00 -0.000000e+00 -0.000000e+00
      outer loop
         vertex 0.000000e+00 8.200000e-02 1.650000e-01
         vertex 0.000000e+00 8.200000e-02 0.000000e+00
         vertex 0.000000e+00 0.000000e+00 1.650000e-01
      endloop
   endfacet
   facet normal -1.000000e+00 0.000000e+00 0.000000e+00
      outer loop
         vertex 0.000000e+00 0.000000e+00 1.650000e-01
         vertex 0.000000e+00 8.200000e-02 0.000000e+00
         vertex 0.000000e+00 0.000000e+00 0.000000e+00
      endloop
   endfacet
   facet normal 0.000000e+00 0.000000e+00 1.000000e+00
      outer loop
         vertex 0.000000e+00 0.000000e+00 1.650000e-01
         vertex 5.999997e-03 0.000000e+00 1.650000e-01
         vertex 5.999997e-03 4.200000e-02 1.650000e-01
      endloop
   endfacet
   facet normal 0.000000e+00 0.000000e+00 1.000000e+00
      outer loop
         vertex 9.600000e-02 0.000000e+00 1.650000e-01
         vertex 1.020000e-01 0.000000e+00 1.650000e-01
         vertex 9.600000e-02 4.200000e-02 1.650000e-01
      endloop
   endfacet
   facet normal -0.000000e+00 0.000000e+00 1.000000e+00
      outer loop
         vertex 9.600000e-02 4.200000e-02 1.650000e-01
         vertex 1.020000e-01 0.000000e+00 1.650000e-01
         vertex 1.020000e-01 8.200000e-02 1.650000e-01
      endloop
   endfacet
   facet normal 0.000000e+00 -0.000000e+00 1.000000e+00
      outer loop
         vertex 9.600000e-02 4.200000e-02 1.650000e-01
         vertex 1.020000e-01 8.200000e-02 1.650000e-01
         vertex 5.999997e-03 4.200000e-02 1.650000e-01
      endloop
   endfacet
   facet normal 0.000000e+00 -0.000000e+00 1.000000e+00
      outer loop
         vertex 5.999997e-03 4.200000e-02 1.650000e-01
         vertex 1.020000e-01 8.200000e-02 1.650000e-01
         vertex 0.000000e+00 8.200000e-02 1.650000e-01
      endloop
   endfacet
   facet normal 0.000000e+00 0.000000e+00 1.000000e+00
      outer loop
         vertex 5.999997e-03 4.200000e-02 1.650000e-01
         vertex 0.000000e+00 8.200000e-02 1.650000e-01
         vertex 0.000000e+00 0.000000e+00 1.650000e-01
      endloop
   endfacet
   facet normal 0.000000e+00 -1.000000e+00 0.000000e+00
      outer loop
         vertex 9.700000e-02 7.900000e-02 6.000005e-03
         vertex 9.700000e-02 7.900000e-02 1.510000e-01
         vertex 4.999999e-03 7.900000e-02 6.000005e-03
      endloop
   endfacet
   facet normal 0.000000e+00 -1.000000e+00 0.000000e+00
      outer loop
         vertex 4.999999e-03 7.900000e-02 6.000005e-03
         vertex 9.700000e-02 7.900000e-02 1.510000e-01
         vertex 4.999999e-03 7.900000e-02 1.510000e-01
      endloop
   endfacet
   facet normal -1.000000e+00 0.000000e+00 0.000000e+00
      outer loop
         vertex 9.600000e-02 0.000000e+00 1.650000e-01
         vertex 9.600000e-02 4.200000e-02 1.650000e-01
         vertex 9.600000e-02 0.000000e+00 1.510000e-01
      endloop
   endfacet
   facet normal -1.000000e+00 0.000000e+00 0.000000e+00
      outer loop
         vertex 9.600000e-02 0.000000e+00 1.510000e-01
         vertex 9.600000e-02 4.200000e-02 1.650000e-01
         vertex 9.600000e-02 4.200000e-02 1.510000e-01
      endloop
   endfacet
   facet normal 1.000000e+00 0.000000e+00 0.000000e+00
      outer loop
         vertex 5.999997e-03 4.200000e-02 1.650000e-01
         vertex 5.999997e-03 0.000000e+00 1.650000e-01
         vertex 5.999997e-03 4.200000e-02 1.510000e-01
      endloop
   endfacet
   facet normal 1.000000e+00 0.000000e+00 0.000000e+00
      outer loop
         vertex 5.999997e-03 4.200000e-02 1.510000e-01
         vertex 5.999997e-03 0.000000e+00 1.650000e-01
         vertex 5.999997e-03 0.000000e+00 1.510000e-01
      endloop
   endfacet
   facet normal -0.000000e+00 -1.000000e+00 -0.000000e+00
      outer loop
         vertex 9.600000e-02 4.200000e-02 1.650000e-01
         vertex 5.999997e-03 4.200000e-02 1.650000e-01
         vertex 9.600000e-02 4.200000e-02 1.510000e-01
      endloop
   endfacet
   facet normal 0.000000e+00 -1.000000e+00 0.000000e+00
      outer loop
         vertex 9.600000e-02 4.200000e-02 1.510000e-01
         vertex 5.999997e-03 4.200000e-02 1.650000e-01
         vertex 5.999997e-03 4.200000e-02 1.510000e-01
      endloop
   endfacet
endsolid