solid sorteerbak klein
   facet normal 1.000000e+00 -0.000000e+00 0.000000e+00
      outer loop
         vertex 5.999997e-03 3.000000e-03 8.000000e-02
         vertex 5.999997e-03 3.000000e-03 6.000001e-03
         vertex 5.999997e-03 2.400000e-02 8.000000e-02
      endloop
   endfacet
   facet normal 1.000000e+00 0.000000e+00 0.000000e+00
      outer loop
         vertex 5.999997e-03 2.400000e-02 8.000000e-02
         vertex 5.999997e-03 3.000000e-03 6.000001e-03
         vertex 5.999997e-03 5.300000e-02 6.000001e-03
      endloop
   endfacet
   facet normal 1.000000e+00 -0.000000e+00 0.000000e+00
      outer loop
         vertex 5.999997e-03 2.400000e-02 8.000000e-02
         vertex 5.999997e-03 5.300000e-02 6.000001e-03
         vertex 5.999997e-03 2.400000e-02 9.000000e-02
      endloop
   endfacet
   facet normal 1.000000e+00 -0.000000e+00 0.000000e+00
      outer loop
         vertex 5.999997e-03 2.400000e-02 9.000000e-02
         vertex 5.999997e-03 5.300000e-02 6.000001e-03
         vertex 5.999997e-03 5.300000e-02 9.000000e-02
      endloop
   endfacet
   facet normal 0.000000e+00 0.000000e+00 -1.000000e+00
      outer loop
         vertex 9.600000e-02 3.000000e-03 8.000000e-02
         vertex 5.999997e-03 3.000000e-03 8.000000e-02
         vertex 9.600000e-02 2.400000e-02 8.000000e-02
      endloop
   endfacet
   facet normal -0.000000e+00 0.000000e+00 -1.000000e+00
      outer loop
         vertex 9.600000e-02 2.400000e-02 8.000000e-02
         vertex 5.999997e-03 3.000000e-03 8.000000e-02
         vertex 5.999997e-03 2.400000e-02 8.000000e-02
      endloop
   endfacet
   facet normal -1.000000e+00 0.000000e+00 0.000000e+00
      outer loop
         vertex 9.600000e-02 2.400000e-02 9.000000e-02
         vertex 9.600000e-02 5.300000e-02 9.000000e-02
         vertex 9.600000e-02 2.400000e-02 8.000000e-02
      endloop
   endfacet
   facet normal -1.000000e+00 0.000000e+00 0.000000e+00
      outer loop
         vertex 9.600000e-02 2.400000e-02 8.000000e-02
         vertex 9.600000e-02 5.300000e-02 9.000000e-02
         vertex 9.600000e-02 5.300000e-02 6.000001e-03
      endloop
   endfacet
   facet normal -1.000000e+00 -0.000000e+00 -0.000000e+00
      outer loop
         vertex 9.600000e-02 2.400000e-02 8.000000e-02
         vertex 9.600000e-02 5.300000e-02 6.000001e-03
         vertex 9.600000e-02 3.000000e-03 8.000000e-02
      endloop
   endfacet
   facet normal -1.000000e+00 0.000000e+00 0.000000e+00
      outer loop
         vertex 9.600000e-02 3.000000e-03 8.000000e-02
         vertex 9.600000e-02 5.300000e-02 6.000001e-03
         vertex 9.600000e-02 3.000000e-03 6.000001e-03
      endloop
   endfacet
   facet normal 0.000000e+00 -0.000000e+00 1.000000e+00
      outer loop
         vertex 9.600000e-02 3.000000e-03 6.000001e-03
         vertex 9.600000e-02 5.300000e-02 6.000001e-03
         vertex 5.999997e-03 3.000000e-03 6.000001e-03
      endloop
   endfacet
   facet normal 0.000000e+00 0.000000e+00 1.000000e+00
      outer loop
         vertex 5.999997e-03 3.000000e-03 6.000001e-03
         vertex 9.600000e-02 5.300000e-02 6.000001e-03
         vertex 5.999997e-03 5.300000e-02 6.000001e-03
      endloop
   endfacet
   facet normal -0.000000e+00 1.000000e+00 0.000000e+00
      outer loop
         vertex 9.600000e-02 5.300000e-02 9.000000e-02
         vertex 1.020000e-01 5.300000e-02 9.000000e-02
         vertex 9.600000e-02 5.300000e-02 6.000001e-03
      endloop
   endfacet
   facet normal -0.000000e+00 1.000000e+00 0.000000e+00
      outer loop
         vertex 9.600000e-02 5.300000e-02 6.000001e-03
         vertex 1.020000e-01 5.300000e-02 9.000000e-02
         vertex 1.020000e-01 5.300000e-02 0.000000e+00
      endloop
   endfacet
   facet normal 0.000000e+00 1.000000e+00 0.000000e+00
      outer loop
         vertex 9.600000e-02 5.300000e-02 6.000001e-03
         vertex 1.020000e-01 5.300000e-02 0.000000e+00
         vertex 5.999997e-03 5.300000e-02 6.000001e-03
      endloop
   endfacet
   facet normal 0.000000e+00 1.000000e+00 0.000000e+00
      outer loop
         vertex 5.999997e-03 5.300000e-02 6.000001e-03
         vertex 1.020000e-01 5.300000e-02 0.000000e+00
         vertex 0.000000e+00 5.300000e-02 0.000000e+00
      endloop
   endfacet
   facet normal 0.000000e+00 1.000000e+00 -0.000000e+00
      outer loop
         vertex 5.999997e-03 5.300000e-02 6.000001e-03
         vertex 0.000000e+00 5.300000e-02 0.000000e+00
         vertex 5.999997e-03 5.300000e-02 9.000000e-02
      endloop
   endfacet
   facet normal 0.000000e+00 1.000000e+00 0.000000e+00
      outer loop
         vertex 5.999997e-03 5.300000e-02 9.000000e-02
         vertex 0.000000e+00 5.300000e-02 0.000000e+00
         vertex 0.000000e+00 5.300000e-02 9.000000e-02
      endloop
   endfacet
   facet normal 0.000000e+00 -1.000000e+00 0.000000e+00
      outer loop
         vertex 0.000000e+00 0.000000e+00 9.000000e-02
         vertex 0.000000e+00 0.000000e+00 0.000000e+00
         vertex 1.020000e-01 0.000000e+00 9.000000e-02
      endloop
   endfacet
   facet normal 0.000000e+00 -1.000000e+00 -0.000000e+00
      outer loop
         vertex 1.020000e-01 0.000000e+00 9.000000e-02
         vertex 0.000000e+00 0.000000e+00 0.000000e+00
         vertex 1.020000e-01 0.000000e+00 0.000000e+00
      endloop
   endfacet
   facet normal 1.000000e+00 0.000000e+00 -0.000000e+00
      outer loop
         vertex 1.020000e-01 5.300000e-02 0.000000e+00
         vertex 1.020000e-01 5.300000e-02 9.000000e-02
         vertex 1.020000e-01 0.000000e+00 0.000000e+00
      endloop
   endfacet
   facet normal 1.000000e+00 0.000000e+00 0.000000e+00
      outer loop
         vertex 1.020000e-01 0.000000e+00 0.000000e+00
         vertex 1.020000e-01 5.300000e-02 9.000000e-02
         vertex 1.020000e-01 0.000000e+00 9.000000e-02
      endloop
   endfacet
   facet normal 0.000000e+00 0.000000e+00 -1.000000e+00
      outer loop
         vertex 0.000000e+00 5.300000e-02 0.000000e+00
         vertex 1.020000e-01 5.300000e-02 0.000000e+00
         vertex 0.000000e+00 0.000000e+00 0.000000e+00
      endloop
   endfacet
   facet normal 0.000000e+00 0.000000e+00 -1.000000e+00
      outer loop
         vertex 0.000000e+00 0.000000e+00 0.000000e+00
         vertex 1.020000e-01 5.300000e-02 0.000000e+00
         vertex 1.020000e-01 0.000000e+00 0.000000e+00
      endloop
   endfacet
   facet normal -1.000000e+00 -0.000000e+00 -0.000000e+00
      outer loop
         vertex 0.000000e+00 5.300000e-02 9.000000e-02
         vertex 0.000000e+00 5.300000e-02 0.000000e+00
         vertex 0.000000e+00 0.000000e+00 9.000000e-02
      endloop
   endfacet
   facet normal -1.000000e+00 0.000000e+00 0.000000e+00
      outer loop
         vertex 0.000000e+00 0.000000e+00 9.000000e-02
         vertex 0.000000e+00 5.300000e-02 0.000000e+00
         vertex 0.000000e+00 0.000000e+00 0.000000e+00
      endloop
   endfacet
   facet normal 0.000000e+00 0.000000e+00 1.000000e+00
      outer loop
         vertex 1.020000e-01 5.300000e-02 9.000000e-02
         vertex 9.600000e-02 5.300000e-02 9.000000e-02
         vertex 9.600000e-02 2.400000e-02 9.000000e-02
      endloop
   endfacet
   facet normal 0.000000e+00 0.000000e+00 1.000000e+00
      outer loop
         vertex 5.999997e-03 5.300000e-02 9.000000e-02
         vertex 0.000000e+00 5.300000e-02 9.000000e-02
         vertex 5.999997e-03 2.400000e-02 9.000000e-02
      endloop
   endfacet
   facet normal 0.000000e+00 0.000000e+00 1.000000e+00
      outer loop
         vertex 5.999997e-03 2.400000e-02 9.000000e-02
         vertex 0.000000e+00 5.300000e-02 9.000000e-02
         vertex 0.000000e+00 0.000000e+00 9.000000e-02
      endloop
   endfacet
   facet normal -0.000000e+00 0.000000e+00 1.000000e+00
      outer loop
         vertex 5.999997e-03 2.400000e-02 9.000000e-02
         vertex 0.000000e+00 0.000000e+00 9.000000e-02
         vertex 9.600000e-02 2.400000e-02 9.000000e-02
      endloop
   endfacet
   facet normal 0.000000e+00 0.000000e+00 1.000000e+00
      outer loop
         vertex 9.600000e-02 2.400000e-02 9.000000e-02
         vertex 0.000000e+00 0.000000e+00 9.000000e-02
         vertex 1.020000e-01 0.000000e+00 9.000000e-02
      endloop
   endfacet
   facet normal -0.000000e+00 0.000000e+00 1.000000e+00
      outer loop
         vertex 9.600000e-02 2.400000e-02 9.000000e-02
         vertex 1.020000e-01 0.000000e+00 9.000000e-02
         vertex 1.020000e-01 5.300000e-02 9.000000e-02
      endloop
   endfacet
   facet normal 0.000000e+00 1.000000e+00 0.000000e+00
      outer loop
         vertex 9.600000e-02 3.000000e-03 8.000000e-02
         vertex 9.600000e-02 3.000000e-03 6.000001e-03
         vertex 5.999997e-03 3.000000e-03 8.000000e-02
      endloop
   endfacet
   facet normal 0.000000e+00 1.000000e+00 0.000000e+00
      outer loop
         vertex 5.999997e-03 3.000000e-03 8.000000e-02
         vertex 9.600000e-02 3.000000e-03 6.000001e-03
         vertex 5.999997e-03 3.000000e-03 6.000001e-03
      endloop
   endfacet
   facet normal 0.000000e+00 1.000000e+00 0.000000e+00
      outer loop
         vertex 9.600000e-02 2.400000e-02 9.000000e-02
         vertex 9.600000e-02 2.400000e-02 8.000000e-02
         vertex 5.999997e-03 2.400000e-02 9.000000e-02
      endloop
   endfacet
   facet normal 0.000000e+00 1.000000e+00 0.000000e+00
      outer loop
         vertex 5.999997e-03 2.400000e-02 9.000000e-02
         vertex 9.600000e-02 2.400000e-02 8.000000e-02
         vertex 5.999997e-03 2.400000e-02 8.000000e-02
      endloop
   endfacet
endsolid